<svg width="55" height="55" viewBox="0 0 55 55" fill="none" xmlns="http://www.w3.org/2000/svg">
<rect width="55" height="55" rx="10" fill="#EEEEEE"/>
<path fill-rule="evenodd" clip-rule="evenodd" d="M42.72 27.3485C42.72 26.2612 42.6224 25.2157 42.4412 24.2122H28V30.1433H36.2521C35.8967 32.06 34.8164 33.684 33.1924 34.7712V38.6185H38.1479C41.0473 35.9491 42.72 32.0183 42.72 27.3485Z" fill="#4285F4"/>
<path fill-rule="evenodd" clip-rule="evenodd" d="M28 42.3331C32.14 42.3331 35.6108 40.96 38.1479 38.6183L33.1924 34.7709C31.8193 35.6909 30.0629 36.2345 28 36.2345C24.0063 36.2345 20.626 33.5373 19.4202 29.9131H14.2975V33.8859C16.8206 38.8971 22.006 42.3331 28 42.3331Z" fill="#34A853"/>
<path fill-rule="evenodd" clip-rule="evenodd" d="M19.4203 29.9135C19.1136 28.9935 18.9394 28.0107 18.9394 27.0001C18.9394 25.9895 19.1136 25.0068 19.4203 24.0867V20.114H14.2976C13.2591 22.184 12.6667 24.5259 12.6667 27.0001C12.6667 29.4743 13.2591 31.8161 14.2976 33.8861L19.4203 29.9135Z" fill="#FBBC05"/>
<path fill-rule="evenodd" clip-rule="evenodd" d="M28 17.7651C30.2512 17.7651 32.2724 18.5388 33.8615 20.0582L38.2593 15.6603C35.6039 13.1861 32.1329 11.6667 28 11.6667C22.006 11.6667 16.8206 15.1027 14.2975 20.1139L19.4202 24.0867C20.626 20.4624 24.0063 17.7651 28 17.7651Z" fill="#EA4335"/>
</svg>
