<svg width="21" height="21" viewBox="0 0 21 21" fill="none" xmlns="http://www.w3.org/2000/svg">
<path d="M10.5 10.5C9.05625 10.5 7.82031 9.98594 6.79219 8.95781C5.76406 7.92969 5.25 6.69375 5.25 5.25C5.25 3.80625 5.76406 2.57031 6.79219 1.54219C7.82031 0.514063 9.05625 0 10.5 0C11.9438 0 13.1797 0.514063 14.2078 1.54219C15.2359 2.57031 15.75 3.80625 15.75 5.25C15.75 6.69375 15.2359 7.92969 14.2078 8.95781C13.1797 9.98594 11.9438 10.5 10.5 10.5ZM0 21V17.325C0 16.5812 0.191406 15.8977 0.574219 15.2742C0.957031 14.6508 1.46562 14.175 2.1 13.8469C3.45625 13.1687 4.83437 12.6602 6.23437 12.3211C7.63437 11.982 9.05625 11.8125 10.5 11.8125C11.9438 11.8125 13.3656 11.982 14.7656 12.3211C16.1656 12.6602 17.5437 13.1687 18.9 13.8469C19.5344 14.175 20.043 14.6508 20.4258 15.2742C20.8086 15.8977 21 16.5812 21 17.325V21H0ZM18.375 18.375V17.325C18.375 17.0844 18.3148 16.8656 18.1945 16.6687C18.0742 16.4719 17.9156 16.3187 17.7188 16.2094C16.5375 15.6187 15.3453 15.1758 14.1422 14.8805C12.9391 14.5852 11.725 14.4375 10.5 14.4375C9.275 14.4375 8.06094 14.5852 6.85781 14.8805C5.65469 15.1758 4.4625 15.6187 3.28125 16.2094C3.08437 16.3187 2.92578 16.4719 2.80547 16.6687C2.68516 16.8656 2.625 17.0844 2.625 17.325V18.375H18.375ZM10.5 7.875C11.2219 7.875 11.8398 7.61797 12.3539 7.10391C12.868 6.58984 13.125 5.97188 13.125 5.25C13.125 4.52812 12.868 3.91016 12.3539 3.39609C11.8398 2.88203 11.2219 2.625 10.5 2.625C9.77812 2.625 9.16016 2.88203 8.64609 3.39609C8.13203 3.91016 7.875 4.52812 7.875 5.25C7.875 5.97188 8.13203 6.58984 8.64609 7.10391C9.16016 7.61797 9.77812 7.875 10.5 7.875Z" fill="black"/>
<path d="M10.5 10.5C9.05625 10.5 7.82031 9.98594 6.79219 8.95781C5.76406 7.92969 5.25 6.69375 5.25 5.25C5.25 3.80625 5.76406 2.57031 6.79219 1.54219C7.82031 0.514063 9.05625 0 10.5 0C11.9438 0 13.1797 0.514063 14.2078 1.54219C15.2359 2.57031 15.75 3.80625 15.75 5.25C15.75 6.69375 15.2359 7.92969 14.2078 8.95781C13.1797 9.98594 11.9438 10.5 10.5 10.5ZM0 21V17.325C0 16.5812 0.191406 15.8977 0.574219 15.2742C0.957031 14.6508 1.46562 14.175 2.1 13.8469C3.45625 13.1687 4.83437 12.6602 6.23437 12.3211C7.63437 11.982 9.05625 11.8125 10.5 11.8125C11.9438 11.8125 13.3656 11.982 14.7656 12.3211C16.1656 12.6602 17.5437 13.1687 18.9 13.8469C19.5344 14.175 20.043 14.6508 20.4258 15.2742C20.8086 15.8977 21 16.5812 21 17.325V21H0ZM18.375 18.375V17.325C18.375 17.0844 18.3148 16.8656 18.1945 16.6687C18.0742 16.4719 17.9156 16.3187 17.7188 16.2094C16.5375 15.6187 15.3453 15.1758 14.1422 14.8805C12.9391 14.5852 11.725 14.4375 10.5 14.4375C9.275 14.4375 8.06094 14.5852 6.85781 14.8805C5.65469 15.1758 4.4625 15.6187 3.28125 16.2094C3.08437 16.3187 2.92578 16.4719 2.80547 16.6687C2.68516 16.8656 2.625 17.0844 2.625 17.325V18.375H18.375ZM10.5 7.875C11.2219 7.875 11.8398 7.61797 12.3539 7.10391C12.868 6.58984 13.125 5.97188 13.125 5.25C13.125 4.52812 12.868 3.91016 12.3539 3.39609C11.8398 2.88203 11.2219 2.625 10.5 2.625C9.77812 2.625 9.16016 2.88203 8.64609 3.39609C8.13203 3.91016 7.875 4.52812 7.875 5.25C7.875 5.97188 8.13203 6.58984 8.64609 7.10391C9.16016 7.61797 9.77812 7.875 10.5 7.875Z" stroke="black"/>
</svg>
